<?xml version="1.0" encoding="utf-8"?>
<svg width="800px" height="800px" viewBox="0 0 1024 1024" class="icon"  version="1.1" xmlns="http://www.w3.org/2000/svg"><path d="M256 853.333333V426.666667h682.666667v426.666666c0 46.933333-38.4 85.333333-85.333334 85.333334H341.333333c-46.933333 0-85.333333-38.4-85.333333-85.333334z" fill="#CFD8DC" /><path d="M938.666667 341.333333v128H256v-128c0-46.933333 38.4-85.333333 85.333333-85.333333h512c46.933333 0 85.333333 38.4 85.333334 85.333333z" fill="#78909C" /><path d="M789.333333 341.333333m-64 0a64 64 0 1 0 128 0 64 64 0 1 0-128 0Z" fill="#37474F" /><path d="M426.666667 341.333333m-64 0a64 64 0 1 0 128 0 64 64 0 1 0-128 0Z" fill="#37474F" /><path d="M789.333333 213.333333c-23.466667 0-42.666667 19.2-42.666666 42.666667v85.333333c0 23.466667 19.2 42.666667 42.666666 42.666667s42.666667-19.2 42.666667-42.666667v-85.333333c0-23.466667-19.2-42.666667-42.666667-42.666667zM426.666667 213.333333c-23.466667 0-42.666667 19.2-42.666667 42.666667v85.333333c0 23.466667 19.2 42.666667 42.666667 42.666667s42.666667-19.2 42.666666-42.666667v-85.333333c0-23.466667-19.2-42.666667-42.666666-42.666667z" fill="#B0BEC5" /><path d="M682.666667 725.333333h85.333333v85.333334h-85.333333zM554.666667 725.333333h85.333333v85.333334h-85.333333zM426.666667 725.333333h85.333333v85.333334h-85.333333zM682.666667 597.333333h85.333333v85.333334h-85.333333zM554.666667 597.333333h85.333333v85.333334h-85.333333zM426.666667 597.333333h85.333333v85.333334h-85.333333z" fill="#90A4AE" /><path d="M341.333333 320m-256 0a256 256 0 1 0 512 0 256 256 0 1 0-512 0Z" fill="#F44336" /><path d="M341.333333 320m-192 0a192 192 0 1 0 384 0 192 192 0 1 0-384 0Z" fill="#EEEEEE" /><path d="M320 170.666667h42.666667v149.333333h-42.666667z" fill="" /><path d="M437.717333 386.133333l-28.650666 28.672-81.450667-81.450666 28.672-28.650667z" fill="" /><path d="M341.333333 320m-32 0a32 32 0 1 0 64 0 32 32 0 1 0-64 0Z" fill="" /></svg>
